<svg id="Layer_1" enable-background="new 0 0 510.467 510.467" height="512" viewBox="0 0 510.467 510.467" width="512" xmlns="http://www.w3.org/2000/svg"><g><g><g><path d="m336.39 88.19-77.316 77.316c-4.986 4.987-4.986 13.072 0 18.059 2.494 2.494 5.761 3.741 9.03 3.741 3.268 0 6.536-1.247 9.03-3.741l83.058-83.058z" fill="#b4d7dc"/></g></g><g><g id="XMLID_5467_"><path d="m299.979 491.298c-11.975-13.134-11.037-33.489 2.097-45.465l53.892-49.139-69.512-17.708c-17.224-4.387-27.63-21.907-23.241-39.131 4.386-17.223 21.904-27.631 39.131-23.241l127.369 32.448c11.468 2.921 20.408 11.901 23.277 23.383 2.869 11.481-.794 23.611-9.539 31.585l-98.01 89.366c-13.217 12.051-33.565 10.951-45.464-2.098z" fill="#161819"/></g><g id="XMLID_5463_"><path d="m197.675 504.639-131.338-92.018c-10.132-7.099-15.299-19.376-13.289-31.583 2.009-12.207 10.838-22.182 22.71-25.659l131.338-38.464c17.06-4.997 34.934 4.783 39.931 21.84 4.995 17.058-4.783 34.935-21.84 39.93l-67.076 19.644 76.497 53.596c14.557 10.199 18.09 30.267 7.891 44.824-10.181 14.529-30.242 18.106-44.824 7.89z" fill="#272a2d"/></g></g><g><g><path d="m164.137 80.092-32.587-32.587c-4.987-4.987-13.073-4.987-18.06 0-4.986 4.987-4.986 13.073 0 18.06l32.432 32.431c6.29-5.744 12.347-11.746 18.215-17.904z" fill="#783c28"/></g></g><g><g><path d="m249.55 165.506-82.379-82.38c-6.732 5.264-13.094 10.955-19.351 16.768l83.671 83.671c2.493 2.494 5.762 3.741 9.03 3.741s6.536-1.246 9.03-3.741c4.986-4.988 4.986-13.072-.001-18.059z" fill="#b4d7dc"/></g></g><g><g><path d="m131.581 115.864c-4.986-4.987-4.986-13.072 0-18.059l32.208-32.208c4.987-4.987 13.073-4.987 18.06 0 4.986 4.987 4.986 13.072 0 18.059l-32.208 32.208c-4.987 4.986-13.072 4.987-18.06 0z" fill="#a55a3c"/></g></g><path d="m433.108 68.974-29.044 4.62-11.099 68.604-60.869-14.169c-1.957-.455-3.96-.685-5.97-.685h-140.795v.029h-1.103c-4.67 0-9.258 1.219-13.311 3.537l-99.63 56.963c-10.027 5.733-15.256 17.242-12.981 28.566l16.366 81.443 30.331 15.651 22.265-26.17-12.565-62.527 70.628-40.381v115.279l2.852 7.342-2.852 14.703v21.931c0 19.882 16.118 36.001 36.001 36.001h68.059c19.883 0 36.001-16.118 36.001-36.001v-21.931l-4.643-9.266 4.643-12.779v-119.234l83.931 19.58c15.161 3.527 30.055-6.803 32.08-22.22l14.763-96.188z" fill="#373c41"/><g id="XMLID_21_"><path d="m127.268 287.361-52.596 10.519 2.118 10.541c2.56 12.739 13.752 21.54 26.265 21.54 1.751 0 3.529-.173 5.312-.531 14.521-2.918 23.928-17.056 21.009-31.577z" fill="#ffb69e"/></g><g><g><path d="m353.982 90.745c2.827 2.5 5.678 4.973 8.541 7.432l32.613-32.612c4.986-4.987 4.986-13.073 0-18.06-4.988-4.986-13.072-4.986-18.06 0l-33.697 33.697c3.517 3.2 7.04 6.394 10.603 9.543z" fill="#783c28"/></g></g><g><g><path d="m358.984 115.864-32.208-32.208c-4.986-4.987-4.986-13.072 0-18.059 4.987-4.987 13.073-4.987 18.06 0l32.208 32.208c4.986 4.987 4.986 13.072 0 18.059-4.987 4.986-13.073 4.987-18.06 0z" fill="#a55a3c"/></g></g><g><path d="m311.116 49.812c-8.803-.24-15.745-7.571-15.505-16.375s7.571-15.745 16.375-15.505c6.279.171 22.826 8.738 31.8 13.636 2.562 1.399 2.461 5.103-.174 6.361-9.227 4.403-26.217 12.055-32.496 11.883z" fill="#161819"/></g><g><path d="m311.778 27.431c-4.743 4.743-12.433 4.743-17.176 0s-4.743-12.433 0-17.176c3.22-3.22 15.521-7.603 23.087-10.085 2.579-.846 5.02 1.594 4.174 4.174-2.482 7.566-6.865 19.867-10.085 23.087z" fill="#272a2d"/></g><g id="XMLID_19_"><circle cx="255.439" cy="55.369" fill="#373c41" r="54.578"/></g><g><path d="m280.534 59.561h-50.229c-7.116 0-12.885-5.769-12.885-12.885s5.769-12.885 12.885-12.885h50.229c7.116 0 12.885 5.769 12.885 12.885s-5.769 12.885-12.885 12.885z" fill="#ffb69e"/></g><g><path d="m279.393 402.316v-85.308l-21.931.001v63.376z" fill="#dc1428"/><g fill="#ff3c3c"><path d="m185.331 299.732h140.061v21.931h-140.061z"/><path d="m298.68 318.99h-31.015l48.512 48.511-.429-31.443z"/></g></g><path d="m434.939 42.654c-14.421-1.894-27.645 8.261-29.538 22.682l-1.336 8.257 52.101 8.079 1.455-9.479c1.893-14.42-8.261-27.645-22.682-29.539z" fill="#ffb69e"/></g></svg>