<svg id="Capa_1" enable-background="new 0 0 512 512" height="512" viewBox="0 0 512 512" width="512" xmlns="http://www.w3.org/2000/svg"><g><path d="m281.018 394.329h-52.959l-11.21 109.329c-.634 4.399 2.777 8.338 7.222 8.338h60.934c4.444 0 7.856-3.939 7.222-8.338z" fill="#e49280"/><path d="m285.001 512h-19.921c4.443 0 7.857-3.939 7.22-8.341l-11.21-109.335h19.931l11.21 109.335c.628 4.402-2.776 8.341-7.23 8.341z" fill="#dd7f66"/><path d="m145.361 272.734c-30.244 31.204-56.236 65.688-61.214 95.62-2.479 14.904 5.323 29.666 18.954 36.182 22.052 10.542 64.777 27.66 120.042 33.886 20.858 2.35 41.935 2.35 62.793 0 55.265-6.225 97.989-23.344 120.042-33.886 13.631-6.516 21.433-21.278 18.954-36.182-4.978-29.931-30.97-64.415-61.214-95.619z" fill="#46cc8d"/><path d="m405.978 404.537c-6.366 3.044-14.45 6.634-24.056 10.346.082-.041.154-.082.237-.123 13.627-7.261 21.433-23.737 18.954-40.367-4.741-31.789-28.529-68.207-56.904-101.662h19.51c30.236 31.203 56.236 65.687 61.213 95.625 2.479 14.902-5.327 29.661-18.954 36.181z" fill="#00c27a"/><g><g><path d="m119.31 329.99c-1.39 1.13-3.06 1.68-4.72 1.68-2.19 0-4.35-.95-5.83-2.78-2.03-2.49-3.51-4.63-4.55-6.26 2.82-4.28 5.86-8.58 9.09-12.87 1.04.73 1.9 1.72 2.48 2.94.07.15 1.36 2.72 4.63 6.75 2.61 3.21 2.11 7.94-1.1 10.54z" fill="#00c27a"/></g><g><path d="m382.13 385.15c-6.33.18-12.65.3-18.79.35-4.14.04-7.47 3.42-7.43 7.56.03 4.12 3.38 7.44 7.49 7.44h.07c6.24-.05 12.66-.17 19.09-.36 4.14-.11 7.4-3.57 7.28-7.71-.11-4.14-3.59-7.38-7.71-7.28zm-46.95.12c-6.33-.16-12.63-.4-18.74-.71-4.17-.22-7.66 2.98-7.87 7.11-.21 4.14 2.97 7.66 7.11 7.87 6.23.32 12.67.56 19.12.73h.2c4.05 0 7.38-3.23 7.49-7.31.1-4.14-3.17-7.58-7.31-7.69zm-46.75-2.72c-6.31-.6-12.56-1.29-18.58-2.06-4.11-.53-7.87 2.38-8.39 6.49-.53 4.11 2.37 7.86 6.48 8.39 6.19.79 12.61 1.5 19.08 2.11.24.02.47.03.71.03 3.82 0 7.09-2.91 7.46-6.79.39-4.13-2.64-7.78-6.76-8.17zm-46.23-6.38c-6.2-1.16-12.33-2.45-18.2-3.83-4.03-.95-8.07 1.56-9.01 5.59-.95 4.03 1.55 8.07 5.59 9.01 6.08 1.43 12.43 2.77 18.87 3.97.46.09.93.13 1.38.13 3.54 0 6.69-2.52 7.37-6.12.76-4.07-1.92-7.99-6-8.75zm-44.97-11.24c-6.01-1.95-11.84-4.05-17.34-6.25-3.85-1.54-8.22.33-9.75 4.17-1.54 3.85.33 8.21 4.17 9.75 5.82 2.33 11.97 4.55 18.29 6.6.77.24 1.55.36 2.32.36 3.16 0 6.1-2.02 7.13-5.19 1.28-3.94-.88-8.17-4.82-9.44zm-42.13-17.98c-5.47-3.07-10.61-6.33-15.26-9.68-3.36-2.43-8.04-1.67-10.47 1.69-2.42 3.36-1.67 8.04 1.69 10.47 5.12 3.69 10.74 7.26 16.71 10.6 1.16.65 2.42.96 3.66.96 2.63 0 5.18-1.38 6.55-3.84 2.03-3.61.74-8.18-2.88-10.2z" fill="#00c27a"/></g><g><path d="m423.83 383.97c-1.76 5.61-4.97 10.72-9.32 14.76-1.09.07-2.18.13-3.26.19-.15.01-.29.01-.43.01-3.95 0-7.26-3.08-7.48-7.08-.23-4.13 2.93-7.67 7.07-7.9 3.27-.19 6.57-.39 9.91-.61 1.25-.08 2.44.15 3.51.63z" fill="#00c27a"/></g></g><path d="m184.013 150.777c-32.124 29.958-65.435 69.38-70.432 100.086-1.995 12.258 4.52 24.36 15.725 29.715 4.979 2.38 11.231 5.164 18.619 8.06 69.307 27.164 146.528 26.807 215.602-.942 6.364-2.557 11.813-5 16.251-7.121 11.195-5.351 17.705-17.418 15.726-29.667-5.121-31.701-38.887-69.628-72.085-100.131z" fill="#6ed5a1"/><path d="m379.773 280.578c-4.268 2.036-9.472 4.381-15.54 6.829 6.603-7.117 9.986-17.617 8.485-28.231-4.823-34.165-35.101-74.655-66.356-108.399h17.052c33.198 30.504 66.973 68.433 72.094 100.13 1.975 12.249-4.535 24.312-15.735 29.671z" fill="#46cc8d"/><g><g><path d="m150.42 214.76c-1.48 1.62-3.5 2.44-5.53 2.44-1.81 0-3.62-.65-5.06-1.97-3.32-3.03-5.47-5.47-6.7-6.99 2.78-4.07 5.77-8.15 8.94-12.22.86.54 1.62 1.25 2.22 2.13.1.14 1.77 2.45 5.66 6.02 3.06 2.79 3.27 7.54.47 10.59z" fill="#46cc8d"/></g><g><path d="m351.83 254.02c-7.28-.03-14.52-.17-21.51-.4-4.14-.13-7.61 3.11-7.74 7.25-.14 4.14 3.1 7.6 7.24 7.74 7.14.24 14.52.38 21.94.41h.04c4.12 0 7.48-3.34 7.49-7.47.02-4.14-3.32-7.51-7.46-7.53zm-53.66-2.27c-7.25-.62-14.42-1.37-21.3-2.23-4.1-.52-7.86 2.39-8.38 6.5s2.4 7.86 6.51 8.38c7.08.89 14.45 1.66 21.91 2.29.21.02.42.03.64.03 3.85 0 7.13-2.95 7.46-6.87.35-4.12-2.71-7.75-6.84-8.1zm-52.93-7.33c-7.14-1.43-14.11-3.04-20.73-4.79-4-1.05-8.11 1.34-9.16 5.34-1.06 4.01 1.33 8.11 5.34 9.17 6.9 1.82 14.17 3.5 21.6 4.98.5.1.99.15 1.48.15 3.5 0 6.63-2.46 7.35-6.03.81-4.06-1.82-8.01-5.88-8.82zm-50.89-14.55c-6.79-2.66-13.2-5.57-19.06-8.62-3.67-1.92-8.2-.49-10.11 3.18-1.92 3.68-.49 8.21 3.18 10.12 6.33 3.3 13.23 6.42 20.51 9.28.9.36 1.83.53 2.74.53 2.99 0 5.82-1.81 6.98-4.76 1.52-3.86-.38-8.21-4.24-9.73z" fill="#46cc8d"/></g><g><path d="m392.64 268.2c-2.68.11-5.32.22-7.95.31h-.26c-4.03 0-7.35-3.19-7.49-7.24-.15-4.14 3.1-7.61 7.24-7.75 3.26-.12 6.56-.25 9.91-.4.58-.03 1.14.01 1.68.11.4 5.28-.74 10.45-3.13 14.97z" fill="#46cc8d"/></g></g><circle cx="372.031" cy="212.353" fill="#8ac9fe" r="16.941"/><path d="m363.473 136.903c-6.241-40.688-74.093-94.842-99.448-113.811-5.628-4.21-13.344-4.21-18.971 0-25.356 18.968-93.208 73.122-99.448 113.811-1.435 9.356 3.666 18.493 12.206 22.575 3.216 1.537 7.121 3.293 11.651 5.135 54.505 22.162 115.649 22.162 170.154 0 4.53-1.842 8.434-3.598 11.651-5.135 8.539-4.082 13.64-13.219 12.205-22.575z" fill="#91deb6"/><path d="m351.265 159.478c-3.219 1.532-7.117 3.291-11.652 5.132-.854.35-1.707.689-2.561 1.018 6.428-4.659 10.007-12.516 8.773-20.538-6.243-40.686-74.09-94.844-99.451-113.808-2.407-1.789-5.194-2.828-8.032-3.085 2.468-1.903 4.721-3.61 6.716-5.101 5.626-4.217 13.339-4.217 18.965 0 25.362 18.965 93.209 73.123 99.451 113.808 1.438 9.358-3.663 18.49-12.209 22.574z" fill="#6ed5a1"/><circle cx="411.369" cy="337.986" fill="#fee45a" r="16.941"/><circle cx="125.934" cy="411.27" fill="#ee6161" r="16.941"/><circle cx="317.535" cy="78.125" fill="#ee6161" r="16.941"/><circle cx="214.809" cy="174.235" fill="#fee45a" r="16.941"/><path d="m388.968 212.35c0 9.359-7.58 16.949-16.939 16.949-6.973 0-12.958-4.217-15.56-10.233.473.041.957.062 1.45.062 9.359 0 16.939-7.58 16.939-16.939 0-2.386-.494-4.649-1.378-6.706 8.679.731 15.488 8.012 15.488 16.867z" fill="#60b7ff"/><path d="m428.306 337.986c0 9.359-7.58 16.939-16.939 16.939-6.973 0-12.958-4.206-15.56-10.233.473.051.957.072 1.45.072 9.359 0 16.939-7.59 16.939-16.939 0-2.386-.494-4.659-1.378-6.716 8.68.741 15.488 8.012 15.488 16.877z" fill="#fed402"/><path d="m142.88 411.273c0 9.349-7.59 16.939-16.949 16.939-6.963 0-12.958-4.217-15.55-10.233.473.051.956.072 1.44.072 9.359 0 16.939-7.59 16.939-16.949 0-2.386-.494-4.659-1.378-6.716 8.679.741 15.498 8.022 15.498 16.887z" fill="#e94444"/><path d="m334.48 78.127c0 9.359-7.59 16.939-16.949 16.939-6.963 0-12.958-4.206-15.56-10.223.473.041.956.062 1.45.062 9.359 0 16.949-7.59 16.949-16.939 0-2.386-.494-4.659-1.388-6.716 8.68.741 15.498 8.012 15.498 16.877z" fill="#e94444"/><path d="m231.748 174.236c0 9.359-7.58 16.939-16.939 16.939-6.973 0-12.958-4.206-15.56-10.233.473.051.957.072 1.45.072 9.359 0 16.939-7.59 16.939-16.939 0-2.386-.494-4.659-1.378-6.716 8.68.74 15.488 8.012 15.488 16.877z" fill="#fed402"/><g><g><path d="m194.41 90.49c-1.48 1.61-3.5 2.43-5.52 2.43-1.82 0-3.64-.66-5.08-1.98-3.52-3.24-5.74-5.79-6.9-7.23 3.34-3.72 6.82-7.39 10.37-10.98.33.32.64.67.91 1.06.09.12 1.84 2.49 5.77 6.11 3.05 2.8 3.25 7.54.45 10.59z" fill="#6ed5a1"/></g><g><path d="m324.62 124.77c-6.43-.59-12.78-1.3-18.9-2.14-4.09-.56-7.89 2.31-8.45 6.42-.56 4.1 2.31 7.88 6.42 8.44 6.34.87 12.93 1.61 19.57 2.21.24.03.46.04.69.04 3.84 0 7.11-2.93 7.46-6.83.37-4.12-2.67-7.77-6.79-8.14zm-46.9-7.08c-6.28-1.39-12.44-2.95-18.29-4.64-3.97-1.15-8.13 1.14-9.29 5.12-1.15 3.98 1.14 8.14 5.12 9.29 6.16 1.78 12.64 3.42 19.24 4.88.54.12 1.08.17 1.62.17 3.44 0 6.55-2.38 7.32-5.89.89-4.04-1.67-8.04-5.72-8.93zm-44.8-14c-5.9-2.52-11.52-5.26-16.69-8.14-3.61-2.01-8.18-.71-10.2 2.91-2.01 3.61-.71 8.18 2.91 10.2 5.62 3.13 11.71 6.1 18.1 8.82.96.41 1.96.61 2.94.61 2.91 0 5.68-1.71 6.9-4.56 1.63-3.81-.15-8.22-3.96-9.84z" fill="#6ed5a1"/></g><g><path d="m363.64 141.67c-.22.03-.44.04-.67.04h-.11c-3.41-.05-6.82-.13-10.13-.23-4.14-.13-7.39-3.59-7.26-7.73s3.57-7.41 7.73-7.26c2.48.08 5.01.14 7.56.18 1.28 3.48 2.2 6.9 2.71 10.23.25 1.6.3 3.2.17 4.77z" fill="#6ed5a1"/></g></g><path d="m280.013 15.824s-12.878-11.138-12.879-11.139c-7.531-6.514-20.302-5.974-27.869 0l-32.711 26.527c-8.561 6.758-10.022 19.177-3.263 27.738s19.177 10.022 27.738 3.263l19.082-15.474c1.591-1.29 3.878-1.254 5.427.086 8.561 6.758 20.98 5.297 27.738-3.263 6.759-8.561 5.298-20.98-3.263-27.738z" fill="#f3f0f3"/><path d="m283.274 43.561c-3.898 4.937-9.667 7.518-15.509 7.518-.144 0-.298 0-.442-.01 4.145-8.207 2.098-18.471-5.399-24.385l-12.876-11.138c-4.741-4.104-11.56-5.41-17.844-4.319l8.063-6.541c7.569-5.975 20.333-6.51 27.871 0l12.876 11.138c8.556 6.756 10.017 19.18 3.26 27.737z" fill="#e2dee2"/><g><path d="m249.876 333.249c-10.267-.561-18.322-9.161-18.123-19.524.202-10.594 8.955-19.018 19.549-18.815 26.653.51 53.239-2.62 79.019-9.303 10.257-2.657 20.728 3.501 23.387 13.758s-3.501 20.728-13.758 23.387c-29.163 7.56-59.235 11.1-89.382 10.523-.231-.005-.462-.014-.692-.026z" fill="#f3f0f3"/></g><g><path d="m339.952 322.755c-3.888 1.008-7.785 1.944-11.704 2.808 4.772-5.214 6.891-12.66 4.978-20.014-2.396-9.266-10.47-15.571-19.541-16.147 5.574-1.1 11.128-2.365 16.64-3.795 10.254-2.653 20.723 3.497 23.387 13.761 2.654 10.253-3.507 20.723-13.76 23.387z" fill="#e2dee2"/></g></g></svg>