<svg id="Capa_1" enable-background="new 0 0 512 512" height="512" viewBox="0 0 512 512" width="512" xmlns="http://www.w3.org/2000/svg"><g><path d="m317.555 88.716h-123.112v-68.176c0-11.343 9.195-20.538 20.538-20.538h82.036c11.343 0 20.538 9.195 20.538 20.538z" fill="#918291"/><ellipse cx="255.999" cy="382.221" fill="#f3f0f3" rx="140.256" ry="129.777"/><path d="m396.258 382.221c0 71.672-62.797 129.779-140.259 129.779-24.168 0-46.907-5.656-66.756-15.612 14.295 4.546 29.64 7.014 45.601 7.014 77.462 0 140.259-58.107 140.259-129.779 0-49.324-29.732-92.22-73.534-114.178 55.094 17.504 94.689 65.862 94.689 122.776z" fill="#e2dee2"/><path d="m351.928 254.921c-2.329-5.574-4.362-8.987-4.362-8.987h-183.134s-2.032 3.413-4.362 8.987c-11.197 26.795-2.39 58.154 20.376 74.194 6.521 4.594 14.611 9.14 24.608 13.133 32.829 13.113 69.062 13.113 101.891 0 9.996-3.993 18.087-8.539 24.608-13.133 22.765-16.04 31.572-47.399 20.375-74.194z" fill="#6ed5a1"/><path d="m331.548 329.112c-6.52 4.597-14.604 9.143-24.6 13.133-18.954 7.569-39.05 10.768-58.971 9.585 12.311-1.358 24.487-4.402 36.232-9.091 10.11-4.032 18.296-8.629 24.888-13.277 23.027-16.229 31.933-47.946 20.61-75.045-1.779-4.258-3.384-7.261-4.062-8.485h21.916s2.036 3.414 4.371 8.989c11.189 26.79 2.386 58.158-20.384 74.191z" fill="#46cc8d"/><g fill="#918291"><circle cx="255.999" cy="402.197" r="16.164"/><circle cx="255.999" cy="461.885" r="16.164"/></g><g fill="#7a6d79"><path d="m272.166 402.193c0 8.927-7.24 16.167-16.167 16.167-6.212 0-11.611-3.507-14.316-8.659.463.041.936.062 1.409.062 8.937 0 16.167-7.24 16.167-16.167 0-2.705-.669-5.255-1.851-7.497 8.268.709 14.758 7.64 14.758 16.094z"/><path d="m272.166 461.884c0 8.927-7.24 16.167-16.167 16.167-6.222 0-11.621-3.517-14.316-8.67.463.041.936.062 1.409.062 8.937 0 16.167-7.23 16.167-16.157 0-2.715-.669-5.266-1.851-7.508 8.268.71 14.758 7.652 14.758 16.106z"/></g><path d="m444.66 308.401-2.923 17.557 25.025-8.793c8.038-2.824 16.844 1.402 19.668 9.441 2.825 8.037-1.402 16.845-9.441 19.668l-49.689 17.458c-.025.009-.049.017-.074.026l-61.088 21.464c-8.038 2.824-16.844-1.402-19.668-9.441-1.752-4.986-.791-10.267 2.109-14.232 1.776-2.428 4.279-4.363 7.331-5.435l52.604-18.483 5.71-34.296c.409-2.458 1.378-4.683 2.755-6.566 3.331-4.555 9.049-7.108 14.995-6.118 8.407 1.399 14.086 9.346 12.686 17.75z" fill="#e49280"/><path d="m476.991 346.277-49.684 17.453c-.031.01-.051.021-.082.031l-61.079 21.464c-8.042 2.818-16.846-1.409-19.674-9.441-1.183-3.373-1.131-6.87-.072-10.017 4.062 3.846 10.079 5.338 15.715 3.363l61.09-21.464c.031-.01.051-.021.072-.031l49.694-17.453c4.669-1.645 8.053-5.307 9.513-9.667 1.728 1.635 3.106 3.692 3.949 6.088 2.827 8.042-1.4 16.846-9.442 19.674z" fill="#dd7f66"/><path d="m67.337 308.401 2.923 17.557-25.025-8.793c-8.038-2.824-16.844 1.402-19.668 9.441-2.825 8.037 1.402 16.845 9.441 19.668l49.689 17.458c.025.009.049.017.074.026l61.088 21.464c8.038 2.824 16.844-1.402 19.668-9.441 1.752-4.986.791-10.267-2.109-14.232-1.776-2.428-4.279-4.363-7.331-5.435l-52.604-18.483-5.71-34.296c-.409-2.458-1.378-4.683-2.755-6.566-3.331-4.555-9.049-7.108-14.995-6.118-8.406 1.399-14.085 9.346-12.686 17.75z" fill="#e49280"/><circle cx="255.999" cy="204.198" fill="#f3f0f3" r="110.122"/><path d="m366.124 204.197c0 60.822-49.304 110.126-110.126 110.126-18.707 0-36.325-4.669-51.751-12.907 9.719 2.808 19.983 4.309 30.596 4.309 60.822 0 110.126-49.304 110.126-110.126 0-42.115-23.634-78.707-58.374-97.219 45.93 13.257 79.529 55.609 79.529 105.817z" fill="#e2dee2"/><path d="m334.939 132.326h-157.88c-7.11 0-12.875-5.764-12.875-12.875v-27.261c0-7.11 5.764-12.875 12.875-12.875h157.88c7.11 0 12.875 5.764 12.875 12.875v27.262c-.001 7.11-5.765 12.874-12.875 12.874z" fill="#918291"/><path d="m317.551 20.538v58.776h-20.569v-58.776c0-11.344-9.194-20.538-20.538-20.538h20.569c11.344 0 20.538 9.194 20.538 20.538z" fill="#7a6d79"/><path d="m347.818 92.19v27.264c0 7.107-5.77 12.876-12.876 12.876h-20.569c7.107 0 12.876-5.77 12.876-12.876v-27.264c0-7.107-5.77-12.876-12.876-12.876h20.569c7.107 0 12.876 5.769 12.876 12.876z" fill="#7a6d79"/><g><g><path d="m204.092 207.225c-4.26 0-7.713-3.453-7.713-7.713v-14.253c0-4.26 3.453-7.713 7.713-7.713s7.713 3.453 7.713 7.713v14.253c0 4.259-3.453 7.713-7.713 7.713z" fill="#554e56"/></g><g><path d="m307.906 207.225c-4.26 0-7.713-3.453-7.713-7.713v-14.253c0-4.26 3.453-7.713 7.713-7.713s7.713 3.453 7.713 7.713v14.253c0 4.259-3.453 7.713-7.713 7.713z" fill="#554e56"/></g></g><path d="m226.735 226.409c-5.494 9.862-15.19 21.743-2.961 27.219 6.778 3.036 17.775 2.485 24.999 1.995 16.238-1.101 33.363-8.219 33.362-26.994-.001-14.182-11.499-25.679-25.681-25.679-13.256-.001-22.858 11.142-29.719 23.459z" fill="#ee6161"/><path d="m282.132 228.633c.01 18.769-17.124 25.886-33.363 26.986-7.22.494-18.214 1.049-24.991-1.995-4.505-2.016-6.037-4.906-5.893-8.238 4.494.175 9.05-.082 12.66-.329 16.239-1.1 33.363-8.217 33.363-26.997 0-5.584-1.779-10.757-4.823-14.974 12.947 1.317 23.047 12.26 23.047 25.547z" fill="#e94444"/></g></svg>