<svg id="Capa_1" enable-background="new 0 0 497 497" height="512" viewBox="0 0 497 497" width="512" xmlns="http://www.w3.org/2000/svg"><g><path d="m443 172.558h-54.55l16.302-28.74 27.158-14.39c2.69 1.43 5.42 3.47 7.09 6.27.01.01.01.02.02.03l12.7 21.55c3.99 6.76-.88 15.28-8.72 15.28z" fill="#fea95c"/><path d="m443 172.558h-22.62c7.84 0 12.71-8.52 8.73-15.28l-9.33-15.82 2.666-7.015 9.464-5.015c2.69 1.43 5.42 3.47 7.09 6.27.01.01.01.02.02.03l12.7 21.55c3.99 6.76-.88 15.28-8.72 15.28z" fill="#fe9738"/><path d="m108.55 172.558h-54.55c-7.84 0-12.71-8.52-8.72-15.28l9.33-15.82 3.37-5.73c.02-.04.05-.08.07-.12 1.68-2.76 4.38-4.76 7.04-6.18l33.419 14.484z" fill="#fea95c"/><path d="m108.55 172.558h-22.61l-31.33-31.1 3.37-5.73c.02-.04.05-.08.07-.12 1.68-2.76 4.38-4.76 7.04-6.18l33.419 14.484z" fill="#fe9738"/><path d="m248.5 219.068v62.23l-55.09-24.52-84.86-84.22-43.46-43.13c3.89-2.07 7.7-2.88 8.09-2.96.02-.01.03-.01.03-.01l68.12-5.54c17.88-1.46 35.57 4.54 48.87 16.58l36.9 33.37c13.63 12.32 21.4 29.83 21.4 48.2z" fill="#fe646f"/><path d="m227.102 170.869-36.9-33.374c-13.304-12.033-30.99-18.032-48.87-16.577l-7.266.591c12.384 1.944 24.063 7.43 33.522 15.986l36.9 33.374c13.624 12.322 21.398 29.834 21.398 48.204v52.159l22.614 10.069v-62.228c0-18.37-7.774-35.882-21.398-48.204z" fill="#fd4755"/><path d="m431.91 129.428-12.13 12.03-31.33 31.1-84.86 84.22-55.09 24.52v-62.23c0-18.37 7.77-35.88 21.4-48.2l36.9-33.37c10.532-9.533 23.814-15.266 37.762-16.516.159-.015.317-.027.476-.041.589-.048 1.178-.095 1.769-.128.802-.046 1.606-.08 2.413-.096 1.17-.03 2.35-.02 3.53.03.97.03 1.95.09 2.92.17l68.12 5.54s.01 0 .03.01c.39.081 4.2.891 8.09 2.961z" fill="#fe646f"/><path d="m431.91 129.428-12.13 12.03-31.33 31.1-84.86 84.22-55.09 24.52v-10.07l32.47-14.45 121.27-120.36c3.62-3.58 1.36-9.76-3.71-10.17l-58.21-4.74c2.93-.46 5.9-.73 8.9-.79 1.17-.02 2.35-.01 3.53.03.97.03 1.95.09 2.92.17l68.12 5.54s.01 0 .03.01c.39.08 4.2.89 8.09 2.96z" fill="#fd4755"/><path d="m248.5 281.301-52.635-43.678c-17.134-14.219-38.7-22.001-60.965-22.001h-54.487c-27.799 0-53.249 15.591-65.877 40.356l-13.654 26.778c-3.268 6.408 3.11 13.461 9.814 10.853l32.675-12.713c5.991-2.331 12.43-3.284 18.839-2.789l134.916 10.42z" fill="#fc8b96"/><g><path d="m195.865 237.623c-17.134-14.219-38.7-22.001-60.965-22.001h-22.614c22.265 0 43.831 7.782 60.965 22.001l52.635 43.678-43.359 6.099 14.598 1.127 51.374-7.226z" fill="#fe646f"/></g><path d="m248.5 281.301 52.635-43.678c17.134-14.219 38.699-22.001 60.965-22.001h54.487c27.799 0 53.249 15.591 65.877 40.356l13.655 26.779c3.268 6.408-3.11 13.461-9.814 10.853l-32.675-12.713c-5.991-2.331-12.43-3.284-18.839-2.789l-134.916 10.42z" fill="#fc8b96"/><g><path d="m496.118 282.756-13.655-26.779c-12.628-24.765-38.078-40.356-65.877-40.356h-27.9c29.527 1.982 57.516 10.349 71.161 40.359.002-.003 13.656 26.775 13.656 26.775 1.054 2.066 1.094 4.195.455 6.05l12.345 4.803c6.705 2.609 13.082-4.444 9.815-10.852z" fill="#fe646f"/></g><path d="m309.57 82.248v81.55c0 18.62-4.99 36.95-14.43 53l-37.94 64.5h-17.4l-37.94-64.5c-9.44-16.05-14.43-34.38-14.43-53v-81.55c0-4.14 3.36-7.5 7.5-7.5s7.5 3.36 7.5 7.5v81.55c0 15.95 4.27 31.65 12.36 45.4l26.21 44.56v-124.33c0-4.14 3.36-7.5 7.5-7.5s7.5 3.36 7.5 7.5v124.33l26.21-44.56c8.09-13.75 12.36-29.45 12.36-45.4v-81.55c0-4.14 3.36-7.5 7.5-7.5s7.5 3.36 7.5 7.5z" fill="#ffd15b"/><path d="m415.38 457.618-89.76-48.33c-21.72-11.7-38.61-30.7-47.69-53.64l-26.43-66.77-3-7.58 14.41-6.41 6.8-3.03c21.65-9.64 46.29-10.1 68.29-1.26l21.29 8.55c33.6 13.49 57.18 44.2 61.56 80.14l10.64 87.33c1.07 8.84-8.27 15.22-16.11 11z" fill="#fe646f"/><path d="m431.487 446.617-10.635-87.328c-4.377-35.939-27.966-66.647-61.562-80.141l-21.292-8.552c-14.044-5.641-29.162-7.476-43.895-5.57 7.238.947 14.389 2.802 21.282 5.57l21.292 8.552c33.596 13.494 57.185 44.202 61.562 80.141l10.635 87.328c.307 2.52-.235 4.838-1.344 6.769l7.851 4.228c7.841 4.221 17.183-2.156 16.106-10.997z" fill="#fd4755"/><path d="m248.5 281.298-3 7.58-26.43 66.77c-9.08 22.94-25.97 41.94-47.69 53.64l-89.76 48.33c-7.84 4.22-17.18-2.16-16.11-11l10.64-87.33c4.38-35.94 27.96-66.65 61.56-80.14l21.29-8.55c22-8.84 46.64-8.38 68.29 1.26l6.81 3.03z" fill="#fe646f"/><g fill="#fd4755"><path d="m227.293 271.858c-14.87-6.621-31.147-8.909-47.01-6.833 8.344 1.079 16.566 3.346 24.396 6.833l21.207 9.442-29.429 74.352c-9.08 22.941-25.973 41.936-47.696 53.633l-81.904 44.101c2.784 4.845 9.156 7.246 14.762 4.228l89.756-48.328c21.723-11.697 38.616-30.692 47.696-53.633l29.429-74.352z"/><path d="m134.547 355.829c-1.285 0-2.587-.33-3.777-1.025-3.576-2.09-4.782-6.683-2.692-10.259 3.632-6.217 7.697-12.145 12.082-17.619 2.589-3.233 7.31-3.755 10.542-1.166 3.233 2.59 3.755 7.31 1.166 10.542-3.928 4.904-7.574 10.223-10.838 15.809-1.395 2.388-3.905 3.718-6.483 3.718z"/><path d="m248.5 281.298-3 7.58c-9.52.49-40.92 3.76-69.9 24.78-1.33.96-2.87 1.43-4.4 1.43-2.32 0-4.61-1.08-6.07-3.1-2.44-3.35-1.69-8.04 1.66-10.47 25.18-18.26 51.51-24.5 67.31-26.63z"/><path d="m366.37 354.808c-1.19.69-2.49 1.02-3.78 1.02-2.58 0-5.09-1.33-6.48-3.72-32.99-56.45-91.32-62.58-104.61-63.23l-3-7.58 14.41-6.41c7.9 1.06 18.48 3.16 30.24 7.28 22.64 7.93 54.18 25.18 75.91 62.38 2.09 3.57.88 8.17-2.69 10.26z"/></g><path d="m195.208 92.537c-7.787 0-14.099-6.312-14.099-14.099v-26.29c0-7.787 6.312-14.099 14.099-14.099 7.787 0 14.099 6.312 14.099 14.099v26.29c0 7.787-6.313 14.099-14.099 14.099z" fill="#fea95c"/><path d="m302.071 92.537c-7.787 0-14.099-6.312-14.099-14.099v-26.29c0-7.787 6.312-14.099 14.099-14.099 7.787 0 14.099 6.312 14.099 14.099v26.29c0 7.787-6.313 14.099-14.099 14.099z" fill="#fea95c"/><path d="m248.639 139.717c-7.787 0-14.099-6.312-14.099-14.099v-26.29c0-7.787 6.312-14.099 14.099-14.099 7.787 0 14.099 6.312 14.099 14.099v26.29c0 7.786-6.312 14.099-14.099 14.099z" fill="#fea95c"/></g></svg>