<svg id="Capa_1" enable-background="new 0 0 496.998 496.998" height="512" viewBox="0 0 496.998 496.998" width="512" xmlns="http://www.w3.org/2000/svg"><g><g><path d="m400.38 419.425 51.41 7.153c12.952 1.802 21.528-13.059 13.488-23.371l-30.149-38.67c-14.509-18.61-36.789-29.491-60.387-29.491h-38.114v11.142c0 36.9 27.204 68.152 63.752 73.237z" fill="#6fd7a3"/></g><path d="m465.278 403.207-30.149-38.67c-14.51-18.61-36.789-29.491-60.387-29.491h-18.719c23.598 0 45.878 10.881 60.387 29.491l30.149 38.67c6.051 7.76 2.689 18.094-4.864 21.967l10.094 1.405c12.953 1.801 21.529-13.06 13.489-23.372z" fill="#3ec3a4"/><g><path d="m405.951 391.858c-1.503 0-3.021-.451-4.34-1.389l-52.335-37.162c-3.376-2.4-4.166-7.083-1.766-10.458 2.4-3.374 7.082-4.167 10.459-1.765l52.335 37.162c3.376 2.4 4.166 7.083 1.766 10.458-1.463 2.057-3.773 3.154-6.119 3.154z" fill="#3ec3a4"/></g><path d="m217.14 417.076-31.965 8.634c-8.972 2.423-16.506-7.036-12.136-15.238l9.209-17.286c10.874-20.411 32.115-33.162 55.242-33.162l5.433-4.111 5.575 4.111 4.373 9.404-4.373 6.698c0 19.167-12.854 35.952-31.358 40.95z" fill="#6fd7a3"/><path d="m237.49 360.024c-2.599 0-5.172.17-7.71.484v15.617c0 19.167-12.854 35.953-31.357 40.951l-23.142 6.251c2.492 2.28 6.06 3.419 9.895 2.383l31.965-8.634c18.504-4.998 31.357-21.784 31.357-40.951l4.373-6.698-4.373-9.404-5.575-4.111z" fill="#3ec3a4"/><path d="m279.855 417.076 31.965 8.634c8.972 2.423 16.506-7.036 12.136-15.238l-9.209-17.286c-10.874-20.411-32.115-33.162-55.242-33.162l-5.509-4.111-5.499 4.111v16.102c.001 19.167 12.854 35.952 31.358 40.95z" fill="#6fd7a3"/><path d="m323.956 410.472-9.209-17.286c-10.874-20.411-32.115-33.162-55.242-33.162l-5.509-4.111-5.499 4.111v.484c20.057 2.487 37.88 14.561 47.531 32.678l9.209 17.286c2.502 4.696 1.098 9.801-2.241 12.855l8.823 2.383c8.973 2.424 16.507-7.036 12.137-15.238z" fill="#3ec3a4"/><g><path d="m96.552 419.457-51.41 7.153c-12.952 1.802-21.528-13.059-13.488-23.371l30.149-38.67c14.509-18.61 36.789-29.491 60.387-29.491h38.114v11.142c.001 36.9-27.204 68.152-63.752 73.237z" fill="#6fd7a3"/></g><path d="m141.586 335.078v11.142c0 36.9-27.204 68.152-63.752 73.237l-41.316 5.749c2.484 1.273 5.419 1.85 8.624 1.404l51.41-7.153c36.548-5.085 63.752-36.337 63.752-73.237v-11.142z" fill="#3ec3a4"/><g><path d="m90.984 391.889c-2.346 0-4.655-1.097-6.118-3.153-2.401-3.375-1.611-8.058 1.764-10.459l50.504-35.426c3.379-2.402 8.059-1.61 10.459 1.765 2.401 3.375 1.611 8.058-1.764 10.459l-50.504 35.425c-1.319.938-2.838 1.389-4.341 1.389z" fill="#3ec3a4"/></g><path d="m118.808 297.248c0 8.93-3.27 17.85-9.78 24.83l-14.12 15.12c-5.67 6.07-12.99 9.8-20.67 11.07-9.43 1.54-19.42-.62-27.61-6.7l-.52-.39c-15.71-11.66-27.07-28.24-32.28-47.09l-13.53-48.93c-1.58-5.7 3.37-11.09 9.19-9.99l24.83 4.69 25.55 4.82c19.44 3.67 37.07 13.79 50.04 28.73 5.95 6.85 8.9 15.35 8.9 23.84z" fill="#fc8b96"/><path d="m118.808 297.248c0 8.93-3.27 17.85-9.78 24.83l-14.12 15.12c-5.67 6.07-12.99 9.8-20.67 11.07-11.52-4.2-21.52-12.52-27.65-24.08l-.44-.82c-12.91-24.31-17.33-52.24-12.56-79.36l.73-4.15 25.55 4.82c19.44 3.67 37.07 13.79 50.04 28.73 5.95 6.85 8.9 15.35 8.9 23.84z" fill="#fd4755"/><path d="m387.969 322.076 14.117 15.12c12.634 13.531 33.415 15.415 48.277 4.376l.527-.392c15.704-11.664 27.063-28.238 32.278-47.091l13.532-48.929c1.578-5.706-3.374-11.089-9.191-9.991l-50.383 9.507c-19.44 3.668-37.072 13.792-50.04 28.733-12.202 14.057-11.821 35.06.883 48.667z" fill="#fc8b96"/><path d="m487.509 235.168-11.612 2.191c1.939 1.927 2.911 4.814 2.085 7.8l-13.532 48.929c-5.214 18.854-16.574 35.427-32.278 47.091l-.527.392c-3.799 2.822-7.985 4.793-12.322 5.948 10.393 2.758 21.849.88 31.041-5.948l.527-.392c15.704-11.664 27.063-28.238 32.278-47.091l13.532-48.929c1.578-5.705-3.375-11.088-9.192-9.991z" fill="#fe646f"/><path d="m188.808 289.508c0 20.55-12.46 39.74-32.42 47.61l-27.08 10.69c-4.83 1.9-9.79 3.03-14.75 3.42-19.87 1.57-39.48-8.62-49.26-27.04l-.43-.82c-12.91-24.31-17.33-52.24-12.56-79.36l12.37-70.36c1.45-8.21 10.99-12.06 17.72-7.15l16.13 11.77 42.16 30.77c22.49 16.41 38.79 39.93 46.24 66.76 1.27 4.57 1.88 9.17 1.88 13.71z" fill="#fe646f"/><path d="m188.808 289.508c0 20.55-12.46 39.74-32.42 47.61l-27.08 10.69c-4.83 1.9-9.79 3.03-14.75 3.42-12.39-8.25-22.16-20.54-27.14-35.64l-.39-1.17c-11.57-35.06-11.1-72.98 1.34-107.75l10.16-28.4 42.16 30.77c22.49 16.41 38.79 39.93 46.24 66.76 1.27 4.57 1.88 9.17 1.88 13.71z" fill="#fd4755"/><g><path d="m106.945 258.734c-2.997 0-5.827-1.809-6.985-4.768l-16.941-40.975c-1.511-3.857.392-8.208 4.249-9.718 3.856-1.511 8.208.393 9.718 4.25l16.941 40.975c1.511 3.857-.392 8.208-4.249 9.718-.898.352-1.824.518-2.733.518z" fill="#fd4755"/></g><path d="m340.608 337.12 27.082 10.684c24.236 9.562 51.787-.604 64.004-23.617l.433-.816c12.909-24.316 17.33-52.247 12.562-79.361l-12.374-70.367c-1.443-8.206-10.991-12.054-17.721-7.143l-58.29 42.535c-22.491 16.412-38.782 39.936-46.233 66.763-7.013 25.244 6.166 51.707 30.537 61.322z" fill="#fe646f"/><path d="m444.689 244.011-12.374-70.367c-1.443-8.206-10.99-12.054-17.721-7.143l-3.129 2.283c1.04 1.364 1.803 2.992 2.132 4.86l12.374 70.367c4.768 27.114.347 55.045-12.562 79.361l-.434.816c-7.56 14.24-20.993 23.553-35.877 26.324 21.615 4.044 43.939-6.251 54.596-26.324l.433-.816c12.909-24.317 17.33-52.247 12.562-79.361z" fill="#fd4755"/><path d="m278.208 286.138c0 32.14-22.53 60.43-54.6 67.14l-27.78 5.82-10.43 2.18c-34.2 7.16-68.32-12.5-79.26-45.69l-.39-1.17c-11.57-35.06-11.1-72.98 1.34-107.75l32.26-90.21c3.77-10.52 17.26-13.45 25.04-5.44l17.91 18.43 49.53 50.97c26.02 26.78 42.23 61.56 46.02 98.71.24 2.35.36 4.69.36 7.01z" fill="#fc8b96"/><g><path d="m171.336 206.219c-3.398 0-6.477-2.325-7.292-5.776l-10.872-43.579c-.953-4.031 1.543-8.071 5.574-9.024 4.024-.953 8.071 1.542 9.023 5.574l10.872 43.579c.953 4.031-1.543 8.071-5.574 9.024-.579.137-1.16.202-1.731.202z" fill="#fd4755"/></g><g><path d="m391.193 257.854c-.91 0-1.835-.167-2.732-.519-3.857-1.51-5.76-5.861-4.249-9.718l15.788-40.095c1.51-3.857 5.866-5.759 9.718-4.249 3.857 1.51 5.76 5.861 4.249 9.718l-15.788 40.095c-1.159 2.959-3.99 4.768-6.986 4.768z" fill="#fd4755"/></g><path d="m278.208 286.138c0 32.14-22.53 60.43-54.6 67.14l-27.78 5.82c-34.05-5.29-61.18-32.8-65.14-68.01l-.16-1.39c-4.68-41.49 4.63-83.34 26.45-118.94l25.32-41.31 49.53 50.97c26.02 26.78 42.23 61.56 46.02 98.71.24 2.35.36 4.69.36 7.01z" fill="#fd4755"/><path d="m273.383 353.283 38.214 8c34.199 7.159 68.319-12.508 79.265-45.69l.388-1.177c11.566-35.062 11.095-72.981-1.339-107.745l-32.267-90.218c-3.763-10.52-17.254-13.449-25.04-5.435l-67.434 69.405c-26.019 26.779-42.234 61.559-46.019 98.705-3.561 34.954 19.843 66.955 54.232 74.155z" fill="#fc8b96"/><g><path d="m324.547 207.369c-.572 0-1.151-.065-1.731-.203-4.031-.953-6.527-4.993-5.574-9.024l10.872-44.728c.952-4.031 4.991-6.527 9.023-5.574 4.031.953 6.527 4.993 5.574 9.024l-10.872 44.728c-.816 3.451-3.895 5.777-7.292 5.777z" fill="#fe646f"/></g><path d="m389.911 206.671-32.267-90.218c-3.535-9.884-15.657-13.065-23.567-6.768 2.118 1.666 3.837 3.94 4.848 6.768l32.267 90.218c12.434 34.764 12.905 72.683 1.339 107.745l-.388 1.177c-8.409 25.493-30.502 42.992-55.796 46.494 32.56 4.484 64.077-14.85 74.515-46.494l.388-1.177c11.566-35.062 11.095-72.981-1.339-107.745z" fill="#fe646f"/><path d="m347.899 290.518c-2.08 19.76-11.45 37.13-25.26 49.57-13.82 12.44-32.08 19.94-51.94 19.94h-44.15c-39.51 0-72.72-29.68-77.14-68.94l-.16-1.39c-4.68-41.49 4.63-83.34 26.45-118.94l56.61-92.37c6.6-10.77 22.21-10.89 28.97-.22l58.56 92.44c22.59 35.67 32.48 77.92 28.06 119.91z" fill="#fe646f"/><path d="m319.836 170.611-58.553-92.44c-5.34-8.431-16.198-10.124-23.78-5.157 1.951 1.278 3.69 2.992 5.062 5.157l58.553 92.44c22.593 35.667 32.48 77.918 28.062 119.906-4.157 39.511-37.475 69.507-77.204 69.507h18.719c39.729 0 73.047-29.996 77.204-69.507 4.417-41.989-5.471-84.239-28.063-119.906z" fill="#fd4755"/><g><path d="m248.498 201.606c-4.143 0-7.5-3.358-7.5-7.5v-23.848c0-4.142 3.357-7.5 7.5-7.5s7.5 3.358 7.5 7.5v23.848c0 4.142-3.358 7.5-7.5 7.5z" fill="#fd4755"/></g><g><path d="m255.999 230.158v129.87h-27.99c-10.9-7.99-20.16-22.32-27.67-42.85-8.2-22.41-11.27-44.15-11.4-45.06-.57-4.11 2.29-7.89 6.39-8.46 4.11-.57 7.9 2.29 8.47 6.39.04.35 3.05 21.33 10.7 42.18 5.44 14.8 14.16 32.12 26.5 38.15v-120.22c0-4.14 3.36-7.5 7.5-7.5s7.5 3.36 7.5 7.5z" fill="#fd4755"/></g></g></svg>