<svg id="Capa_1" enable-background="new 0 0 497 497" height="512" viewBox="0 0 497 497" width="512" xmlns="http://www.w3.org/2000/svg"><g><path d="m220.464 56.061 33.536-22.479c14.274-9.567 31.576-13.532 48.592-11.135l23.801 3.354c12.329 1.737 22.012 11.439 23.724 23.772l5.634 40.584c1.729 12.457-5.095 24.529-16.66 29.47l-80.188 38.937z" fill="#fe646f"/><path d="m355.751 90.157-5.634-40.584c-1.712-12.333-11.395-22.035-23.724-23.772l-23.801-3.354c-6.603-.93-13.248-.891-19.744.051l23.442 3.303c12.329 1.737 22.012 11.44 23.724 23.772l5.634 40.584c1.729 12.457-5.095 24.529-16.66 29.47l-63.182 30.679 3.097 8.258 80.188-38.937c11.565-4.941 18.39-17.013 16.66-29.47z" fill="#fd4755"/><path d="m314.896 102.528c-2.67 0-5.253-1.428-6.608-3.942l-1.26-2.337c-4.45-8.257-12.21-14.338-21.29-16.684l-29.876-7.668c-4.011-1.037-6.422-5.127-5.386-9.138 1.036-4.01 5.131-6.421 9.138-5.385l29.876 7.668c13.111 3.388 24.316 12.168 30.742 24.09l1.259 2.336c1.966 3.646.604 8.195-3.043 10.161-1.132.61-2.351.899-3.552.899z" fill="#fd4755"/><path d="m250.052 334.811c-1.421 0-2.857-.403-4.131-1.246l-26.553-17.836c-3.455-2.285-4.403-6.938-2.118-10.393s6.938-4.403 10.393-2.118l26.553 17.836c3.455 2.285 4.403 6.938 2.117 10.393-1.442 2.182-3.829 3.364-6.261 3.364z" fill="#3ec3a4"/><path d="m233.443 463.646c-2.62 0-5.164-1.375-6.542-3.821-2.033-3.609-.755-8.183 2.854-10.215l24.969-13.767c3.608-2.033 8.183-.755 10.216 2.854 2.032 3.609.755 8.183-2.854 10.215l-24.969 13.767c-1.163.656-2.427.967-3.674.967z" fill="#6fd7a3"/><path d="m136.446 119.251-7.694-35.446c-4.516-20.319 5.31-41.115 23.875-50.528l59.987-30.417c9.551-4.843 21.08-3.449 29.201 3.53l26.196 22.511c4.685 4.026 5.714 10.877 2.419 16.102l-68.515 108.627z" fill="#fe646f"/><path d="m256.064 88.744c.3 15.426-1.414 30.888-5.41 45.785-10.934 45.74-78.832 42.18-85.596-4.202-6.98-27.587-11.443-73.127 28.148-74.266 26.725-.727 61.178-3.614 62.858 32.683z" fill="#fd4755"/><path d="m241.816 6.39c-7.591-6.523-18.158-8.164-27.305-4.396 2.576 1.057 5.015 2.517 7.203 4.396l26.196 22.511c4.685 4.026 5.714 10.877 2.419 16.102l-63.515 100.697 15.101 7.93 68.516-108.627c3.296-5.225 2.267-12.076-2.419-16.102z" fill="#fd4755"/><g><path d="m232.188 497h-16.04c-3.777 0-6.839-3.062-6.839-6.839v-52.019c0-21.765 6.611-43.016 18.959-60.939l1.572-2.282c8.927-12.959 13.707-28.323 13.707-44.059v-80.351h29.719v80.342c0 21.76-6.609 43.006-18.952 60.927l-1.577 2.29c-8.928 12.963-13.709 28.332-13.709 44.073v52.019c-.001 3.776-3.063 6.838-6.84 6.838z" fill="#6fd7a3"/></g><path d="m257.149 250.511v80.34c0 21.761-6.61 43.01-18.953 60.931l-1.577 2.29c-8.927 12.961-13.707 28.328-13.707 44.066v49.884c0 4.166-2.759 7.829-6.764 8.978h16.04c3.777 0 6.839-3.062 6.839-6.839v-52.019c0-15.74 4.781-31.109 13.709-44.072l1.577-2.29c12.343-17.921 18.952-39.169 18.952-60.93v-80.34h-16.116z" fill="#3ec3a4"/><path d="m283.227 351.968-7.988-9.699c-2.805-3.406-2.805-8.322 0-11.728l7.988-9.699c5.91-7.176 14.719-11.334 24.016-11.334h7.025c9.297 0 18.106 4.157 24.016 11.334l5.891 7.153c4.023 4.885 4.023 11.935 0 16.82l-5.891 7.153c-5.91 7.176-14.719 11.334-24.016 11.334h-7.025c-9.296 0-18.106-4.157-24.016-11.334z" fill="#6fd7a3"/><path d="m344.176 327.995-5.891-7.153c-5.91-7.176-14.719-11.334-24.016-11.334h-7.025c-2.219 0-4.408.244-6.539.702 6.796 1.461 12.978 5.168 17.477 10.632l5.891 7.153c4.023 4.885 4.023 11.935 0 16.82l-5.891 7.153c-4.499 5.464-10.681 9.17-17.477 10.632 2.131.458 4.32.702 6.539.702h7.025c9.297 0 18.106-4.157 24.016-11.334l5.891-7.153c4.022-4.885 4.022-11.935 0-16.82z" fill="#3ec3a4"/><path d="m199.797 441.958 7.988-9.699c2.805-3.406 2.805-8.322 0-11.728l-7.988-9.699c-5.91-7.176-14.719-11.334-24.016-11.334h-7.025c-9.297 0-18.106 4.157-24.016 11.334l-5.891 7.153c-4.023 4.885-4.023 11.935 0 16.82l5.891 7.153c5.91 7.176 14.719 11.334 24.016 11.334h7.025c9.296 0 18.106-4.157 24.016-11.334z" fill="#6fd7a3"/><path d="m199.797 410.832c-5.91-7.176-14.719-11.334-24.016-11.334h-7.026c-2.219 0-4.408.244-6.539.702 6.796 1.461 12.978 5.168 17.477 10.632l7.988 9.699c2.805 3.406 2.805 8.322 0 11.728l-7.988 9.699c-4.499 5.464-10.681 9.17-17.477 10.632 2.131.458 4.32.702 6.539.702h7.025c9.297 0 18.106-4.157 24.016-11.334l7.988-9.699c2.805-3.406 2.805-8.322 0-11.728z" fill="#3ec3a4"/><path d="m276.169 88.74v4.65c0 8.56-.69 17.1-2.07 25.53-.41 2.51-.88 5.01-1.41 7.5-.38 1.75-.78 3.5-1.21 5.24l-.57 2.26-.15.61c-4.84 19.42-22.28 33.05-42.29 33.05-20.08 0-37.56-13.72-42.33-33.23l-.98-4.02c-2.19-8.96-3.59-18.1-4.18-27.29-.24-3.43-.35-6.87-.35-10.32v-3.98c0-2.16.21-4.28.61-6.32 2.85-14.51 15.29-25.58 30.46-26.32.53-.03 1.07-.04 1.61-.04h30.18c18.05 0 32.68 14.64 32.68 32.68z" fill="#fc8b96"/><path d="m243.492 56.061h-23.53c18.693 1.453 34.961 8.025 36.102 32.684.3 15.426-1.414 30.888-5.41 45.785-4.391 18.368-17.969 28.778-33.083 31.666 3.5.903 7.156 1.382 10.902 1.382 20.01 0 37.448-13.628 42.284-33.048l.718-2.873c.436-1.736.836-3.482 1.209-5.237 2.318-10.846 3.482-21.919 3.482-33.029v-4.646c.001-18.047-14.627-32.684-32.674-32.684z" fill="#fe646f"/><path d="m373.349 127.22-22.23 41.06c-3.15 5.81-5.61 11.97-7.33 18.35l-7.4 27.41c-8.72 32.34-38.05 54.81-71.55 54.81h-32.61c-33.48 0-62.8-22.45-71.54-54.77l-7.17-26.53c-1.89-6.99-4.66-13.7-8.25-19.99l-21.52-37.69c-3.74-6.56 2.4-14.34 9.65-12.22l62.66 32.91c10.21 5.36 21.36 8.28 32.61 8.71 10.31.4 20.71-1.29 30.53-5.09.96-.36 1.91-.75 2.86-1.16l77.03-33.39 25.36-4.66c6.93-1.28 12.26 6.05 8.9 12.25z" fill="#fe646f"/><g><path d="m364.446 114.967-12.653 2.326c2.445 2.463 3.377 6.379 1.453 9.932l-22.232 41.058c-6.3 10.914-11.302 33.507-14.723 45.763-9.874 36.904-38.718 51.503-71.391 54.803h19.943c33.494 0 62.825-22.466 71.551-54.803l7.397-27.415c1.721-6.379 4.18-12.537 7.326-18.347l22.233-41.058c3.357-6.205-1.966-13.534-8.904-12.259z" fill="#fd4755"/></g><path d="m274.099 118.92c-.41 2.51-.88 5.01-1.41 7.5-.38 1.75-.78 3.5-1.21 5.24l-.57 2.26h-22.82c-3.96 0-7.98-.29-11.94-.85-16.49-2.34-31.81-9.4-44.3-20.43l-10.87-9.6c-.24-3.43-.35-6.87-.35-10.32v-3.98c0-2.16.21-4.28.61-6.32l6.89 6.91 13.65 12.07c10.28 9.08 22.9 14.89 36.48 16.82 3.26.46 6.57.7 9.83.7z" fill="#fe646f"/><g fill="#fd4755"><path d="m274.099 118.92c-.41 2.51-.88 5.01-1.41 7.5-.38 1.75-.78 3.5-1.21 5.24l-.57 2.26h-20.09c1.31-4.95 2.36-9.96 3.17-15z"/><path d="m236.959 97.89c-4.05.83-8.02-1.79-8.84-5.84-1.79-8.74-5.02-17.04-9.61-24.68l-6.81-11.27c.53-.03 1.07-.04 1.61-.04h16.01l4.27 7.5c4.3 8 7.4 16.55 9.22 25.48.83 4.06-1.79 8.02-5.85 8.85z"/><path d="m259.199 154.18c-10 5.62-35.63 23.43-44.38 61.93-.79 3.48-3.88 5.84-7.3 5.84-.55 0-1.11-.06-1.67-.18-4.04-.92-6.57-4.94-5.65-8.98 5.56-24.51 17.15-41.81 28.47-53.52 10.31.4 20.71-1.29 30.53-5.09z"/></g></g></svg>