<svg id="Capa_1" enable-background="new 0 0 512 512" height="512" viewBox="0 0 512 512" width="512" xmlns="http://www.w3.org/2000/svg"><g><g><ellipse cx="256" cy="205.463" fill="#faf7f5" rx="225.259" ry="48.27"/><path d="m256 450.616c-121.122 0-219.926-20.464-225.26-46.136v49.251c0 26.659 100.85 48.269 225.26 48.269s225.26-21.61 225.26-48.27v-49.25c-5.335 25.672-104.139 46.136-225.26 46.136z" fill="#a0c8ff"/><path d="m256 305.169c121.121 0 219.925-20.463 225.26-46.136v-53.573c0 26.66-100.85 48.27-225.26 48.27s-225.26-21.61-225.26-48.27v53.573c5.333 25.672 104.138 46.136 225.26 46.136z" fill="#a0c8ff"/><path d="m256 305.169c-121.122 0-219.926-20.464-225.26-46.136v145.447c5.334 25.673 104.138 46.136 225.26 46.136 121.121 0 219.925-20.463 225.26-46.136v-145.447c-5.335 25.673-104.139 46.136-225.26 46.136z" fill="#fff2a0"/><g fill="#ff9c9b"><ellipse cx="340.693" cy="63.698" rx="34.992" ry="34.992" transform="matrix(.835 -.55 .55 .835 21.085 197.787)"/><ellipse cx="171.307" cy="63.698" rx="34.992" ry="34.992" transform="matrix(.55 -.835 .835 .55 23.922 171.777)"/></g></g><g><path d="m431.231 164.799c-34.099-8.723-81.273-14.674-132.829-16.757-5.516-.231-10.172 4.07-10.395 9.588s4.07 10.173 9.589 10.395c50.197 2.029 95.897 7.764 128.679 16.15 37.347 9.553 44.981 19.223 44.981 21.29 0 2.516-9.855 14.022-58.072 24.354-41.878 8.974-97.7 13.916-157.185 13.916s-115.307-4.942-157.185-13.916c-48.216-10.332-58.072-21.838-58.072-24.354 0-2.067 7.634-11.737 44.981-21.29 32.783-8.386 78.482-14.121 128.679-16.15 5.518-.223 9.811-4.877 9.589-10.395-.224-5.518-4.873-9.821-10.395-9.588-51.556 2.083-98.729 8.035-132.829 16.757-40.387 10.331-60.022 23.632-60.025 40.663h-.001v248.267c0 18.894 24.167 33.257 73.88 43.91 43.212 9.26 100.524 14.359 161.377 14.359s118.165-5.1 161.377-14.359c49.713-10.653 73.88-25.016 73.88-43.91v-248.267h-.001c-.001-17.031-19.635-30.332-60.023-40.663zm-48.886 142.233c12.453-1.785 24.186-3.846 35.03-6.17 23.742-5.088 41.643-11.024 53.882-17.893v97.961zm-126.822 126.379-93.565-122.527c29.195 2.841 61.097 4.338 94.042 4.338 28.462 0 56.148-1.116 81.981-3.251zm-214.78-54.517v-95.926c12.239 6.869 30.14 12.806 53.882 17.893 7.395 1.585 15.212 3.044 23.379 4.381zm97.854-65.651 97.034 127.07c-51.774-.996-99.757-5.776-136.816-13.718-37.947-8.131-52.126-16.987-56.448-21.618zm221.698 1.468 109.012 90.602c-4.681 4.713-19.067 13.342-56.122 21.282-37.387 8.012-85.891 12.806-138.19 13.743zm-265.67-65.336c43.212 9.26 100.524 14.36 161.375 14.36s118.163-5.1 161.375-14.36c23.742-5.088 41.643-11.024 53.882-17.893v25.471h-.001c0 2.516-9.855 14.022-58.072 24.354-41.878 8.974-97.7 13.916-157.185 13.916s-115.307-4.942-157.185-13.916c-48.216-10.332-58.072-21.838-58.072-24.354h-.001v-25.471c12.241 6.869 30.141 12.805 53.884 17.893zm318.562 228.708c-41.876 8.974-97.7 13.915-157.187 13.915s-115.31-4.942-157.187-13.915c-48.215-10.331-58.071-21.838-58.071-24.354v-25.471c12.239 6.869 30.14 12.806 53.882 17.893 43.213 9.26 100.524 14.36 161.375 14.36s118.162-5.099 161.375-14.36c23.742-5.088 41.643-11.024 53.882-17.893v25.471c.001 2.516-9.854 14.023-58.069 24.354z"/><circle cx="256" cy="157.196" r="10"/><path d="m511.485 6.845c-1.744-5.24-7.407-8.073-12.646-6.33l-119.708 39.85c-4.245-7.018-10.441-12.964-18.302-16.898-10.745-5.378-22.942-6.251-34.348-2.455-11.402 3.796-20.644 11.805-26.023 22.552-5.379 10.746-6.251 22.945-2.455 34.347 3.797 11.403 11.806 20.645 22.552 26.023 6.346 3.176 13.198 4.781 20.094 4.781 4.782 0 9.585-.772 14.254-2.326 11.403-3.796 20.644-11.805 26.023-22.552 3.934-7.861 5.331-16.335 4.523-24.496l119.707-39.85c5.24-1.744 8.074-7.406 6.329-12.646zm-148.444 68.042c-2.988 5.97-8.121 10.419-14.455 12.527-6.336 2.108-13.109 1.624-19.08-1.364-5.97-2.988-10.419-8.122-12.527-14.455-2.108-6.334-1.624-13.11 1.363-19.079 2.988-5.97 8.122-10.418 14.456-12.527 2.594-.863 5.261-1.292 7.918-1.292 3.83 0 7.637.892 11.162 2.656 12.323 6.167 17.331 21.211 11.163 33.534z"/><path d="m131.075 83.838c5.379 10.747 14.62 18.756 26.023 22.552 4.67 1.555 9.471 2.326 14.254 2.326 6.895 0 13.748-1.605 20.094-4.781 10.747-5.378 18.756-14.62 22.552-26.023 3.796-11.402 2.924-23.601-2.455-34.347-5.379-10.747-14.621-18.756-26.023-22.552-11.404-3.796-23.601-2.924-34.348 2.455-7.861 3.934-14.057 9.88-18.302 16.898l-119.709-39.85c-5.236-1.742-10.901 1.089-12.647 6.329-1.744 5.24 1.09 10.902 6.33 12.647l119.707 39.85c-.807 8.161.589 16.635 4.524 24.496zm29.047-42.486c5.971-2.988 12.746-3.472 19.08-1.364 6.334 2.109 11.468 6.558 14.456 12.527 2.987 5.97 3.472 12.746 1.363 19.079-2.108 6.334-6.558 11.468-12.527 14.455-5.97 2.988-12.746 3.472-19.08 1.364s-11.467-6.558-14.455-12.527c-6.168-12.322-1.16-27.366 11.163-33.534z"/></g></g></svg>