<svg id="Capa_1" enable-background="new 0 0 512.003 512.003" height="512" viewBox="0 0 512.003 512.003" width="512" xmlns="http://www.w3.org/2000/svg"><g><g><g><path d="m181.368 206.78c-4.629 4.619-8.494 9.736-11.603 15.213-14.519 25.577-39.989 42.984-69.016 46.466-22.717 2.725-44.09 12.344-60.824 29.041-43.249 43.153-39.127 117.232 9.205 165.459 48.333 48.227 122.574 52.341 165.822 9.188 16.734-16.697 26.374-38.023 29.105-60.69 3.49-28.964 20.936-54.378 46.569-68.865 5.489-3.102 10.617-6.959 15.246-11.578 30.765-30.697 27.833-83.393-6.548-117.699s-87.192-37.232-117.956-6.535z" fill="#fff2a0"/><ellipse cx="165.918" cy="346.429" fill="#ffea60" rx="43.787" ry="43.691"/><path d="m167.565 302.767c10.649.398 21.183 4.651 29.316 12.766s12.395 18.626 12.794 29.251l230.1-240.275-31.414-31.329z" fill="#ff9c9b"/><path d="m473.492 11.083-65.13 62.098 31.414 31.329 62.227-64.979z" fill="#a0c8ff"/></g></g><g><circle cx="141.535" cy="502.001" r="10"/><path d="m509.066 32.452-28.51-28.448c-3.842-3.832-10.038-3.902-13.964-.158l-9.43 8.991-9.935-9.913c-3.91-3.902-10.242-3.894-14.142.015-3.901 3.91-3.894 10.241.015 14.143l9.583 9.561-17.34 16.532-9.229-9.208c-3.91-3.901-10.241-3.893-14.142.016s-3.894 10.241.016 14.142l8.875 8.855-134.41 128.152c-16.032-7.574-33.29-10.756-50.34-9.223-20.111 1.808-38.028 10.036-51.821 23.801-5.189 5.19-9.639 11.026-13.226 17.345-13.001 22.904-35.994 38.41-61.502 41.477-25.825 3.092-48.891 14.119-66.704 31.89-21.19 21.142-32.86 50.045-32.86 81.388 0 35.752 15.334 71.556 42.07 98.232 15.416 15.381 34.139 27.234 54.144 34.277 1.099.387 2.219.57 3.321.57 4.124 0 7.985-2.571 9.433-6.682 1.834-5.21-.902-10.919-6.112-12.753-17.208-6.058-33.342-16.284-46.66-29.57-23.004-22.952-36.196-53.595-36.196-84.074 0-25.992 9.584-49.867 26.985-67.228 14.614-14.579 33.618-23.636 54.961-26.191 31.789-3.823 60.392-23.061 76.513-51.462 2.7-4.757 6.056-9.157 9.967-13.068 18.302-18.266 46.067-23.15 72.22-13.657l-97.142 92.619c-12.956.575-25.741 5.784-35.613 15.634-10.164 10.142-15.762 23.628-15.762 37.974 0 14.345 5.598 27.831 15.761 37.972 10.485 10.462 24.253 15.693 38.026 15.691 13.769-.001 27.543-5.231 38.025-15.691 9.594-9.574 15.114-22.127 15.703-35.57l92.825-96.93c9.522 26.076 4.635 53.771-13.662 72.031-3.909 3.901-8.318 7.249-13.108 9.954-28.461 16.091-47.742 44.639-51.577 76.37-2.564 21.291-11.636 40.243-26.235 54.807-8.141 8.124-17.66 14.553-28.293 19.11-5.077 2.175-7.428 8.054-5.253 13.13 1.625 3.792 5.316 6.064 9.196 6.064 1.314 0 2.65-.261 3.934-.811 12.976-5.561 24.598-13.413 34.542-23.335 17.806-17.764 28.86-40.785 31.965-66.57 3.075-25.443 18.613-48.379 41.559-61.352 6.357-3.589 12.211-8.034 17.397-13.21 13.787-13.759 22.033-31.641 23.847-51.711 1.537-17.007-1.661-34.219-9.245-50.21l128.466-134.146 4.766 4.755c1.952 1.948 4.508 2.921 7.063 2.921 2.563 0 5.126-.979 7.079-2.937 3.901-3.91 3.893-10.241-.016-14.142l-5.057-5.046 16.569-17.302 5.473 5.461c1.952 1.948 4.508 2.921 7.064 2.921 2.563 0 5.126-.979 7.079-2.937 3.901-3.91 3.894-10.241-.015-14.142l-5.764-5.751 8.98-9.378c3.767-3.931 3.696-10.151-.157-13.995zm-35.732-7.401 14.671 14.639-48.395 50.535-16.923-16.885zm-269.391 283.405c-4.817-4.807-10.333-8.495-16.219-11.093l220.483-210.218 17.566 17.528-210.672 219.989c-2.652-5.963-6.396-11.455-11.158-16.206zm-14.127 61.789c-13.178 13.148-34.62 13.148-47.797 0-6.376-6.363-9.888-14.82-9.888-23.815 0-8.996 3.512-17.454 9.889-23.816 6.589-6.574 15.243-9.862 23.898-9.862s17.31 3.288 23.899 9.862c6.376 6.363 9.888 14.82 9.888 23.815s-3.512 17.453-9.889 23.816z"/><path d="m83.084 397.076c-3.91-3.902-10.241-3.893-14.142.015-3.901 3.91-3.894 10.241.015 14.142l32.043 31.973c1.952 1.948 4.508 2.921 7.063 2.921 2.563 0 5.126-.979 7.079-2.936 3.901-3.91 3.894-10.241-.015-14.142z"/></g></g></svg>