<svg id="Capa_1" enable-background="new 0 0 512.021 512.021" height="512" viewBox="0 0 512.021 512.021" width="512" xmlns="http://www.w3.org/2000/svg"><g><g><g><path d="m338.15 451.659c8.773-6.711 10.445-19.264 3.733-28.037l-120.394-157.382-31.77 24.303 120.394 157.383c6.711 8.773 19.264 10.444 28.037 3.733z" fill="#ffea60"/><path d="m155.32 212.641 32.428-49.988 38.822-12.468c-2.333-17.206-8.84-34.068-19.693-49.046l-176.191 127.543c.56.773 1.132 1.542 1.716 2.305 11.894 15.548 27.169 26.975 44 34.079l22.186-34.207z" fill="#fff2a0"/><path d="m226.57 150.185-38.822 12.468-32.428 49.988-56.732 18.218-22.186 34.207c25.867 10.917 55.419 11.595 82.095 1.122l23.279 30.431 47.655-36.455-23.279-30.431c17.093-23.012 24.191-51.72 20.418-79.548z" fill="#a0c8ff"/><path d="m203.21 96.326c-9.33-11.502-20.603-20.601-32.99-27.206l-43.37 13.925-32.428 49.988-56.732 18.218-24.855 38.32c3.186 13.723 9.099 27.033 17.851 39.111l176.191-127.543c-1.177-1.625-2.387-3.235-3.667-4.813z" fill="#ff9c9b"/><path d="m94.421 133.033 32.428-49.988 43.371-13.926c-36.087-19.244-81.644-17.274-116.278 8.464-35.931 26.702-50.583 71.178-41.108 111.987l24.855-38.32z" fill="#a0c8ff"/><path d="m474.494 151.363-56.879-18.33-32.575-50.1-43.089-13.885c-12.439 6.611-23.76 15.733-33.124 27.277-1.278 1.576-2.486 3.184-3.661 4.806l176.18 127.559c8.787-12.123 14.713-25.487 17.892-39.265z" fill="#ff9c9b"/><path d="m417.616 133.033 56.879 18.33 24.743 38.062c9.406-40.769-5.255-85.171-41.143-111.841-34.591-25.706-80.077-27.703-116.143-8.536l43.089 13.885z" fill="#a0c8ff"/><path d="m356.718 212.641-32.575-50.1-38.661-12.461c-3.805 27.861 3.289 56.612 20.403 79.652l-23.279 30.431 47.655 36.455 23.279-30.431c26.71 10.487 56.302 9.793 82.193-1.163l-22.137-34.053z" fill="#a0c8ff"/><g fill="#fff2a0"><path d="m285.482 150.08 38.661 12.461 32.575 50.1 56.878 18.33 22.137 34.053c16.792-7.106 32.031-18.519 43.902-34.037.582-.761 1.152-1.527 1.71-2.298l-176.18-127.559c-10.833 14.951-17.338 31.777-19.683 48.95z"/><path d="m173.887 451.659c-8.773-6.711-10.445-19.264-3.733-28.037l120.394-157.382 31.77 24.303-120.394 157.383c-6.711 8.773-19.264 10.444-28.037 3.733z"/></g></g></g><g><path d="m495.38 104.232c-2.817-4.748-8.953-6.313-13.703-3.494-4.749 2.819-6.314 8.955-3.494 13.704 8.618 14.517 13.194 30.503 13.84 46.544l-10.093-15.769c-1.266-1.977-3.185-3.445-5.423-4.149l-52.427-16.485-29.63-46.286c-1.265-1.976-3.185-3.444-5.423-4.148l-17.383-5.465c14.665-3.29 30.152-3.3 45.259.378 5.366 1.308 10.774-1.984 12.082-7.35 1.307-5.366-1.983-10.775-7.35-12.082-44.544-10.849-91.872 5.01-120.575 40.396-32.628 40.226-35.358 96.518-7.546 139.417l-18.852 24.645c-3.355 4.386-2.52 10.663 1.866 14.018l-20.513 26.815-20.511-26.814.002-.002c4.387-3.355 5.223-9.632 1.867-14.018l-18.852-24.645c27.813-42.9 25.083-99.192-7.546-139.417-19.29-23.783-46.779-38.996-77.401-42.839-30.616-3.841-61.016 4.103-85.597 22.37-25.731 19.124-42.352 47.125-46.801 78.847-4.45 31.729 3.819 63.215 23.284 88.66 15.99 20.903 37.836 35.583 63.177 42.451 22.059 5.98 45.689 5.425 67.34-1.471l18.858 24.651c1.611 2.106 3.994 3.487 6.623 3.837.44.059.881.087 1.32.087 2.184 0 4.322-.716 6.075-2.057l30.393 39.736-56.034 73.248c-10.05 13.139-7.538 32.004 5.601 42.055 5.287 4.045 11.619 6.178 18.165 6.178 1.334 0 2.677-.089 4.021-.268 7.943-1.058 15-5.145 19.868-11.51l46.151-60.33 46.149 60.33c5.902 7.711 14.837 11.763 23.869 11.762 6.358 0 12.766-2.009 18.194-6.162 6.36-4.874 10.446-11.929 11.504-19.868 1.06-7.947-1.042-15.829-5.913-22.186l-56.035-73.248 30.399-39.738c1.754 1.342 3.892 2.058 6.076 2.058.439 0 .88-.029 1.32-.087 2.629-.35 5.011-1.73 6.622-3.837l18.858-24.651c21.651 6.896 45.281 7.451 67.34 1.471 25.34-6.869 47.186-21.548 63.176-42.451 14.689-19.2 23.089-42.066 24.293-66.126 1.175-23.487-4.527-46.553-16.49-66.705zm-435.473-18.622c23.509-17.47 52.981-22.727 80.125-16.814l-17.023 5.352c-2.238.704-4.158 2.172-5.423 4.148l-29.629 46.286-52.427 16.486c-2.239.704-4.158 2.172-5.423 4.149l-10.009 15.638c.138-3.216.431-6.443.884-9.674 3.7-26.38 17.524-49.666 38.925-65.571zm-36.104 106.56 21.192-33.112 52.426-16.485c2.238-.704 4.158-2.172 5.423-4.148l29.629-46.286 37.225-11.704c8.398 4.976 16.132 11.254 22.851 18.792l-159.252 115.158c-4.097-7.042-7.276-14.495-9.494-22.215zm21.238 38.404 159.216-115.132c5.199 8.975 8.88 18.576 11.032 28.446l-31.382 9.869c-2.238.704-4.157 2.172-5.422 4.148l-29.63 46.287-52.426 16.485c-2.239.704-4.158 2.172-5.423 4.149l-17.699 27.655c-10.526-5.441-20.144-12.798-28.266-21.907zm121.399 29.538c-1.935-2.529-4.897-3.925-7.945-3.925-1.224 0-2.461.225-3.652.692-20.394 8.007-42.367 8.719-62.572 3.072l13.623-21.286 52.426-16.485c2.238-.704 4.158-2.172 5.423-4.148l29.63-46.287 24.184-7.605c.176 20.922-6.264 41.904-19.431 59.629-2.661 3.582-2.626 8.494.085 12.039l17.203 22.489-31.77 24.303zm37.296 32.298 15.884-12.151 23.806 31.121-12.591 16.459zm-9.754 149.44c-3.351 4.379-9.64 5.216-14.018 1.867-4.379-3.351-5.217-9.639-1.867-14.019l114.318-149.44 15.885 12.152zm139.96-12.145c1.622 2.117 2.321 4.74 1.969 7.386-.354 2.65-1.718 5.006-3.839 6.63-4.376 3.349-10.667 2.508-14.021-1.874l-49.443-64.635 12.587-16.455zm23.252-172.826c-4.157-1.634-8.886-.312-11.597 3.232l-17.203 22.489-31.77-24.303 17.203-22.489c2.712-3.544 2.746-8.456.085-12.039-13.166-17.725-19.606-38.707-19.43-59.628l24.184 7.605 29.63 46.287c1.265 1.976 3.184 3.444 5.422 4.148l52.426 16.485 13.623 21.285c-20.205 5.647-42.178 4.935-62.573-3.072zm81.537-4.399-17.7-27.655c-1.266-1.977-3.185-3.445-5.423-4.149l-52.427-16.485-29.63-46.287c-1.265-1.976-3.184-3.444-5.422-4.148l-31.382-9.869c2.153-9.869 5.833-19.471 11.032-28.445l159.215 115.132c-8.12 9.109-17.738 16.466-28.263 21.906zm39.998-38.103-159.234-115.145c6.658-7.474 14.359-13.784 22.774-18.82l37.296 11.726 29.63 46.286c1.265 1.976 3.184 3.444 5.422 4.148l52.426 16.485 21.204 33.13c-2.221 7.669-5.405 15.119-9.518 22.19z"/><circle cx="458.095" cy="77.584" r="10"/></g></g></svg>